<svg width="192" height="191" viewBox="0 0 192 191" fill="none" xmlns="http://www.w3.org/2000/svg">
<path d="M133.825 116.258C136.873 142.137 116.445 165.813 88.1976 169.14C59.9502 172.467 34.5802 154.185 31.5321 128.307C29.2769 109.16 37.1343 141.675 84.3082 136.118C118.075 132.141 130.777 90.3795 133.825 116.258Z" fill="black"/>
<path d="M122.745 5.45891C130.023 -1.81964 141.825 -1.81964 149.104 5.45891L185.557 41.912C192.835 49.1905 192.834 60.9912 185.557 68.2695C178.281 75.5452 166.486 75.5485 159.207 68.2782L155.76 71.5712C171.336 102.429 166.248 141.047 140.466 166.829C108.333 198.962 56.2336 198.962 24.1001 166.829C-8.03337 134.696 -8.03336 82.5963 24.1001 50.4628C49.9025 24.6605 88.5622 19.5843 119.432 35.205L122.779 31.8515L122.745 31.8173C115.467 24.5391 115.467 12.7374 122.745 5.45891ZM138.497 16.0663C137.076 14.6457 134.773 14.6457 133.352 16.0663L133.351 16.0654C131.931 17.4856 131.931 19.789 133.351 21.2099L138.528 26.3857C141.537 29.3951 141.534 34.2515 138.571 37.2626L121.919 53.9472L116.892 50.9267C91.0363 35.3936 56.9923 38.7855 34.7075 61.0702C8.43192 87.3458 8.43192 129.946 34.7075 156.222C60.9831 182.497 103.583 182.497 129.859 156.222C152.154 133.927 155.538 99.8621 139.98 74.0019L136.886 68.8593L159.446 47.3046L169.805 57.663C171.226 59.0837 173.529 59.0837 174.95 57.663C176.37 56.2422 176.37 53.9389 174.95 52.5185L138.497 16.0663Z" fill="black"/>
</svg>
